<svg xmlns="http://www.w3.org/2000/svg" width="2560" height="1600" viewBox="0 0 2560 1600">
  <defs>
    <linearGradient id="bg" x1="0" y1="0" x2="1" y2="1">
      <stop offset="0" stop-color="#050506"/>
      <stop offset="0.52" stop-color="#0a0a0c"/>
      <stop offset="1" stop-color="#15161a"/>
    </linearGradient>
    <radialGradient id="smoke" cx="72%" cy="42%" r="58%">
      <stop offset="0" stop-color="#2a2c31" stop-opacity=".42"/>
      <stop offset=".42" stop-color="#17181c" stop-opacity=".20"/>
      <stop offset="1" stop-color="#070708" stop-opacity="0"/>
    </radialGradient>
    <linearGradient id="blade" x1="0" y1="0" x2="1" y2="0">
      <stop offset="0" stop-color="#5f0f18" stop-opacity="0"/>
      <stop offset=".38" stop-color="#8f111b" stop-opacity=".22"/>
      <stop offset=".50" stop-color="#e22935" stop-opacity=".88"/>
      <stop offset=".62" stop-color="#8f111b" stop-opacity=".22"/>
      <stop offset="1" stop-color="#5f0f18" stop-opacity="0"/>
    </linearGradient>
    <filter id="glow" x="-40%" y="-40%" width="180%" height="180%">
      <feGaussianBlur stdDeviation="16"/>
    </filter>
  </defs>

  <rect width="2560" height="1600" fill="url(#bg)"/>
  <rect width="2560" height="1600" fill="url(#smoke)"/>

  <path d="M0 1280 L820 760 L1180 760 L360 1600 L0 1600 Z" fill="#111216" opacity=".72"/>
  <path d="M2560 0 L1900 0 L1470 430 L1710 430 Z" fill="#1a1b1f" opacity=".48"/>
  <path d="M1510 0 L2560 0 L2560 860 L2310 860 Z" fill="#0d0e10" opacity=".70"/>

  <path d="M1740 300 L2080 190 L2315 450 L2180 790 L1835 850 L1620 575 Z"
        fill="#18191d" stroke="#2a2c31" stroke-width="2" opacity=".60"/>
  <path d="M1835 850 L2180 790 L2315 1015 L2040 1215 L1710 1060 Z"
        fill="#111216" stroke="#25272c" stroke-width="2" opacity=".52"/>

  <rect x="1180" y="1080" width="1180" height="9" rx="5"
        transform="rotate(-33 1180 1080)" fill="#e22935" opacity=".72"/>
  <rect x="1100" y="1065" width="1360" height="46" rx="23"
        transform="rotate(-33 1100 1065)" fill="url(#blade)" filter="url(#glow)" opacity=".52"/>

  <rect x="0" y="0" width="2560" height="1600" fill="none"
        stroke="#2a2c31" stroke-opacity=".18" stroke-width="2"/>
</svg>
